# xmcd CD database file
#
# Track frame offsets:
#	150
#	14080
#	32680
#	47852
#	61820
#	75308
#	93217
#	104980
#	119030
#	130118
#
# Disc length: 1893 seconds
#
# Revision: 0
# Processed by: cddbd v1.4PL0 Copyright (c) Steve Scherf et al.
# Submitted via: CDex 1.40Release
#
DISCID=8507630a
DTITLE=Lewis Family - Bluegrass Country Club
DYEAR=1900
DGENRE=Country
TTITLE0=Running In The Yard
TTITLE1=A Rose In A Bible
TTITLE2=Hallelujah Homecoming Day
TTITLE3=I Wouldn't Miss It For The World
TTITLE4=I Stand Alone At God's Door
TTITLE5=I've Found A Hiding Place
TTITLE6=I'd Still Have Nothing
TTITLE7=If We Ever Needed The Lord Before
TTITLE8=Family Affair
TTITLE9=The Gloryland Way
EXTD=ID3G: 2
EXTT0=
EXTT1=
EXTT2=
EXTT3=
EXTT4=
EXTT5=
EXTT6=
EXTT7=
EXTT8=
EXTT9=
PLAYORDER=
